<svg xmlns="http://www.w3.org/2000/svg" width="316" height="588" fill="currentColor" viewBox="0 0 316 588">
  <path fill="#212A37" d="m306.188 56.619-.256-.306h-1.207l-.906.579-1.586.663h-2.263l-1.737.663-.83 1.076-1.434 1.325-1.585.579-1.813-.248-1.735-.663-1.132.166-1.209.662-.451 1.242-.227 1.159.604 1.243.906 1.076.302 1.323-.53 1.491-.981.992-1.433.828-1.056.415-2.114.082-2.039.414-2.641 2.73-.529 2.234-.151 1.407-.755 1.075-1.358.58-2.037.165-1.209-.414-1.207-.165-1.283.579-.982 1.158-.604.992-.98.331-1.134.248-1.131.828-.529 1.157-1.206.911-1.209.578-1.207.166-.906.413-1.207.248-1.511.414-1.282.165h-1.51l-.604.827-.755 2.067-1.056-.265-1.36.166-.603.579-1.058.661-.151 1.075v1.571l-.377.743-.83.744.151.993.454.661.753.743.077 1.984-.228.909-.678 1.157-.755.744-.906.247-1.51 1.571-1.584.165-1.962.33-1.058 1.488-.905.909-1.737 1.074-1.508.743-1.813.165-.982.909-1.206.165-1.737-.248-.558.245-.197.085-.528-.908.075-1.983-1.055-1.073-1.133-.496-1.51-1.736-1.584-3.057-.982-2.066-1.056-1.736-.227-1.984.527-1.322 1.587-1.323 1.056-1.158.302-1.322-.681-.496-.829-1.406-.679-1.902-1.283-1.24-1.434-1.82-1.133-1.075-1.962-.827h-1.586l-1.282.496h-1.66l-1.511-.827-2.339-.827-.15-.777 1.357-.249.302-.496-.981-1.242-.076-1.406-.602-1.903-.906-1.406-1.058-.662-1.133-1.656-.225-1.075.453-.993.905-.911.225-.828-.677-.331-.906-.166-.228-1.076.228-1.324.754-.911v-1.738l-.15-1.491-.303-.993.453-.911h7.021l1.131-1.16.756-1.407 1.13-.331.53-.498.755-.496.075-1.077-.453-.332-.152-.828.906-.579.604-.249.302-.829-.377-.745-1.207-.746-.228-1.822.228-1.326-.755-1.575-1.057-.662-2.339-.082-3.399-.499-.602-.828-.453-1.409-.831-1.575-1.509-.663-1.661-.994-1.509-.249-2.19-.497-1.358-1.078-1.132-1.409 1.327-.662.68-.56 1.471-.062 2.662.311 2.773-.249 1.075-.373 1.246-.684 1.188-.56 1.189-1.057 2.775-1.369 1.188-.496.85-.623.849-.871 1.103-2.176 1.528-.249 1.19.498 2.037 2.487.849 1.369.51 2.114.849 2.114.627.835.14 1.159.529.581 2.264 1.243 2.114.166 1.209 1.243 1.282 2.072.076 2.237-.151 3.15-1.284 1.243-1.057 1.159-.151 1.16.227 2.32 1.131.828 1.36-.579.98-1.243h1.134l1.282 1.573.755 3.479 1.358.911 1.586.497.981 1.905 1.584 1.158h2.946l1.961.746 1.811-.166.378-1.325-.603-.745-.906-.745v-2.071l-.529-1.738v-1.491l.378-.994 1.434-1.16 2.641.166 3.699-.332h1.511l.453-.662-.529-.663-1.661-.248-.982.248-1.886-1.077-1.058-.911-.753-.829.15-.746.905-.497-.529-.912-.677-.662v-.83l.753-.744.756-1.078.301-1.078-.075-1.492-.529-1.16-1.434-1.078-1.359-.497-1.433-1.078.226-1.409.982-1.41-.604-.911-1.36-1.327-.678-1.079.226-1.16-.226-1.742-.907-.663-.377-1.327.377-1.991-.753-.664-1.586-.331-.678-.415-.529-1.328-.831-.498-.378.249-.376.83-.832.83-.83.663-.226.912-1.962.83-1.133.996-.83.497-1.433.332-.832.912-1.358 1.659-1.509 2.239-1.434 1.41-.605 3.068-.98.166-1.043.245.728-1.639-.17-2.798-1.018-1.866-1.02-1.493-1.812-1.965-1.415-.747-1.471-.374-1.19-.684-.113-.435.85-.622.849-.435.566-1.93.509-1.182 1.868-1.867.284-.933.339-.684.906-2.801.85-.622 1.415-.374h1.358l.51-.498.565-1.37.454-1.307.905-.685.849-.312 1.756-.995.735-.934.906-.375 1.018.125 1.813.063.453-.935.735-.809.68.249.339.498 2.944.062.906-1.494.793-.374.735.374.793 1.246 1.246.498.905.56 1.472.436 1.641 1.121.963.934.991 1.743.678 1.494.115 1.93.735 1.182 1.642.622.396.685-.228.809.058.81.792 1.057.906.934.906.746 2.943.124 1.246-.497.736-.685v.498l-.452 1.743-.737.498-.34 1.119.228.871 1.241.472.774.602.799.167v.263l-.283.871-.792.559-2.717 1.058-.849.498-1.19.559-1.584.498-1.303.062-.736.808-2.151.56-.679.622.679 1.742 2.151 1.306-.056 1.367.453.995.509 1.617.907.807.678 1.058.679.808 1.53.186.678.497 1.134 1.243 2.037.249 1.698.56 1.642 1.74.678.808 1.925.372 1.982-.062 1.415-.621 2.548-1.305.565-1.182-.622-1.367-1.132-.559-.849-.622-.34-1.119.225-1.368.906-1.367.85-.933.962-.622.736-.186.85.497.622.498.85-.498.736-1.243.735-.933.542-1.459.147-.243 1.008.049.283 2.124.848.311.662-.466 1.934-.518.755.57 5.001.052 1.602.674 1.887-.104.613-.57 1.322-.052.566-.622 1.321-.57.377.933-.708 1.087.188 1.089.331.622.048 1.088-.708.674-.33 1.139-.237 1.71.19 1.398 1.226.622.754.777.378.777v4.919l.849.984 2.359 1.864 1.605-.156 1.32-1.397 1.18.207 2.311 1.501 2.075.363.52.828-.142.828-.708.829-.99.414-1.511.828-1.13.103-.945.829-1.036.672-2.3.097ZM156.929 324.102l.417-.545.622-.368 1.076-.122.962-.492.736-.551.736-.245.283-.368.906-.307.282-.922-.056-1.226-.679-.86-.622-.552.055-.675.68-.43.227-1.043.622-1.227.736-1.105.963-.614.396-.797.397-1.167.792-.676.735-.183h1.19l.793-.307 1.528-.369 1.245-.122 1.697 1.043.964.43 1.189-.37 1.189-1.042 1.302-.37v-4.186l.339-1.106.34-.736.905-.615-.056-.614-.679-1.658-.398-.615v-.613l.567-.37 1.359-.122 1.132.247.906-.308 1.33-.859 1.246-1.044h1.302l1.246-.125.848-1.228.961-1.782.397-2.395.396-2.952.568-2.396.339-2.766.679-2.027.397-1.599-.058-4.021-.848-1.168-.396-.984-.059-1.476-.678-1.045-1.415-1.6-1.302-.553-.51-.676.113-1.292.793-1.046 1.076-.185.905-.676.453-.554.057-1.414-.566-1.6 1.868-1.847.339-2.154.284-2.645 1.019-1.17.906-2.462.566-.985 1.471-.615.68-.802.113-1.539-1.019-1.969.341-.862 1.018-1.109.792-.553.17-.986-.565-.923-.284-.814.113-7.144-.397-1.295-.904-.616-.114-1.91 2.094-4.314.793-1.172.226-1.477.113-3.022.623-1.418 1.36-.802.962-1.108 2.037-1.727.68-1.232.34-1.235v-2.207l-.793-.987-1.246-.062-.452-.925-.85-1.481-1.018-.801-1.473-.433-.509-1.356v-2.221l.736-1.913.736-1.419 1.472-.493 2.095-1.358.792-1.235.792-.617.85-.493 2.434-.309.566-.679-.058-1.543-.677-.679-.161-.937 1.078-.556.51-.864-.169-1.11.848-1.113 1.075-.308 1.133-.432 1.132-.679.68-1.05-.114-2.285v-1.482l.623-.742 1.301-.369.738-.866.508-1.111 1.019-1.112.906-.309 1.868-.37.849-1.174.453-.988.397-1.174.566-2.101v-1.853l.396-.742.848-.433.68-.494.311-.563.538.587 1.189.989 1.587.803 2.206.989 2.096.186 3.735.432 2.208.619 2.32 1.235 2.096 1.729 2.094.434 1.586.493 1.415.247 1.244-.617.171-.865-.962-.865-.284-.618.566-.742.962-.37 2.039-.556h1.188l.68-.433-.17-.741-.736-.742-.282-1.112.451-1.36 1.019.124.794.68.906 1.05 1.187.309 1.587.618 1.415 1.174 1.697 1.174 4.585 1.669 2.888.185 2.096.556 1.075.556 1.302.803 2.232-.062-.089 1.126-.439.721-1.014 1.201-1.101.769-.662.77-.529.913-.66 2.162-.087 1.442-1.368 1.346-.264.479-1.541 1.251-.529-.097-1.057.529-.528.721-.53 1.057v.625l-.221.336-.837.529-.837.336-.222.336-.747.288-.882.913-.439.048-1.191.576-.483.577-.44.96-.443.48-.837 1.921-.351 1.443.087 1.391.178 1.009.704 1.2.177.864.042 1.249-.087.623-.353 1.058-1.189 2.065-1.1 1.054-1.719 1.008-.971.768-.617.625-.571.96-.483 1.103-.488.864-.306 1.536.043 2.448.176.766.661 2.064.354.527 1.101 2.206.396.624.97.865.836.576.529 1.389v.528l-.572.766-.178.625-.307.143-.487.863-.086.912-.396-.096.396-.671.265-1.2-.265-.479h-.353l.309 1.296-.266.766-.791 1.056-.705.383-.045.623.31.239-.179.623-.529-.671h-.482l-.618.385-.441.815.044.432-.97.958-.218.959v.719l.528 1.247.264 1.294.088.91-.308.383-.089 1.102-.351.671-.045.577-.351 1.101v.817l.175.861-.175 1.006v.814l-.398 1.869v.622l-.925 3.979-.353 1.147-.527 1.007-.575 1.388-.351.575v.816l-.265.861-.307.478-1.016 1.102v.575l-.394 1.005-.176 2.635-.178.334.088.862v1.628l-.132.812.528.336-.085.91-.839 1.867v.573l-.573.767v.382l-.397.335-.176.91-.265.095-.218.621h-.485l-.618 1.102-.133.525v1.724l.133.766.309.19.394-.239-.349 1.244-.265.097v.67l-.309.858-.132.814-.265.24.178.766-.486.813.221.478-.396.431-.177.766.264.43-.264.766-.572.142-.398.576-.352 1.099v.813l-.44.861-.177 1.241.044 4.927-.263.668-.089 1.243-.264.192.043 1.051-.661 1.051v.766l-.308.048-.529.81-.088.432-.75 1.098-.174 1.244-.31.621.09 1.051-.176.86-.398.287-.132 1.242-.177.335.264 1.767-.087.908.132.622.529 1.479.617-.046.309.86-.177.859-.484.479-.31 1.193-.66.669-.22.476-.66-.191-.22.239-.751.047.176.383.706.192.441.286-.089.717-.44 1.241-.043 1.339-.135.237-.13 1.528h-.263l-.618 1.23-.306-.35-1.038-.614-.944-.97-3.065-.512-1.981.359-.615.664-1.415.459-.943 1.073-.661 1.586-1.462 2.607-.802 2.3-.378 1.483.236 1.737 2.029 1.175.189.868-1.274 2.35-1.227 1.891-1.368 1.788-.754 1.849-.661.765-1.037.92-.284 1.533-.048 3.012-.942.971-1.228.815-.376 1.38-.236 1.685-.66 1.124-.471 1.123-.756 1.275-1.18 4.032-.613 1.481-.99 1.479-1.463 1.378-.566 1.092-.142 9.437-.848.613-1.18.611-2.642.102-.802.357-.897.817-1.179-.104-.802-.611-.235-1.837-.566-1.477-.802-.714-3.35-.869-1.511-1.376-1.367-.613-.353-.662-.378-1.735-.85-.918-1.037-.664-.33-1.785.048-1.838-.756-.623-.707-1.53-1.321-.714-.519-.665h-1.369l-.896.613-.99.868-.804.305-1.272-.51-1.038-.611-.612-1.378-.898-1.072-1.555-.97-1.84-.562-1.794-.868-1.792-.306-1.18-1.072-1.792-3.37-.519-1.736.046-2.093-.565-1.022-.708-.868-.377-1.43-.653-.644.332-.322.151-1.716-.302-1.267-1.359-.981-1.886-1.471-1.661-1.145-1.661-.735-1.057-.9-1.396-.573-.679-.448.755-2.209.868-.531.868-1.349.641-1.185 2.114-.818 1.057-.614.226-3.312-.453-1.349-1.056-.164-.453-1.138Z"/>
  <path fill="#212A37" d="m283.273 30.355-.542 1.459-.735.932-.736 1.243-.85.498-.622-.498-.85-.496-.736.185-.962.623-.85.932-.906 1.367-.225 1.368.34 1.12.849.621 1.132.56.622 1.367-.565 1.181-2.548 1.306-1.415.62-1.982.063-1.925-.372-.678-.808-1.642-1.74-1.698-.56-2.037-.25-1.134-1.242-.678-.498-1.53-.185-.679-.809-.678-1.057-.907-.807-.509-1.617-.453-.995.056-1.367-2.151-1.307-.679-1.741.679-.623 2.151-.56.736-.808 1.303-.062 1.584-.497 1.19-.56.849-.498 2.717-1.058.792-.558.283-.872.365.61-.219.194v.727l1.41-.242.264.194 1.101-.099.443.34.395-.049.662.63.615-.145.353.628 1.499.098-.221.774.441.145-.178.823.09.58-1.014.728-.484.724.22.389.529-.823.793-.194.397-.483.616-.34v-.29l.529-.629.175-.436-.351-.436-.045-.532-.441-.436.75-.677h.748l.618.532.968.049.088.242-.529.532.275.48.343.15.836-.049.485.436.044.58.926.34.263-.63 1.014.194.794-.146.086.338-.349.388-.178.581.178.727.394.096.441.436.48-.05Zm-56.481 3.191 1.047-.249.98-.166.605-3.068 1.434-1.41 1.509-2.239 1.358-1.659.832-.912 1.433-.332.83-.497 1.133-.996 1.962-.83.226-.912.83-.663.832-.83.376-.83.378-.249.831.498.529 1.328.678.415 1.586.331.753.664-.377 1.991.377 1.327.907.663.226 1.742-.226 1.16.678 1.08 1.36 1.326.604.911-.982 1.41-.226 1.41 1.433 1.077 1.359.497 1.434 1.078.529 1.16.075 1.492-.301 1.078-.756 1.078-.753.744v.83l.677.662.529.912-.905.497-.15.746.753.83 1.058.91 1.886 1.077.982-.248 1.661.248.529.663-.453.662h-1.511l-3.699.332-2.641-.166-1.434 1.16-.378.994v1.491l.529 1.738v2.071l.906.745.603.745-.378 1.325-1.811.166-1.961-.746h-2.946l-1.584-1.158-.981-1.905-1.586-.497-1.358-.91-.755-3.48-1.282-1.573h-1.134l-.98 1.243-1.36.58-1.131-.829-.227-2.32.151-1.16 1.057-1.159 1.284-1.243.151-3.15-.076-2.237-1.282-2.072-1.209-1.243-2.114-.166-2.264-1.243-.529-.58-.14-1.16Zm3.63 76.756-.096.273-1.227.413h-1.32l-.943.413-1.228 1.342-.661 3.097-.376 1.445-.943 1.446-.567 1.341-1.698 2.374-1.415.929-1.511 1.135-1.225.516-1.888.412-1.888-1.444-1.32-1.341-.565-1.652.943-2.787-1.038-.619-1.227-.619v-1.032l.756-2.581.094-1.548-1.604-.414-.945-.826-.187-1.342-.85-1.239-1.509-.93-.849-.619-1.133-.103-.943.412-1.131.104-.095-1.446.848-1.652.472-1.137-.472-.723-.848-.827.283-2.892.565-.62-.094-1.446-1.038-1.654-1.509-.517-1.792-.309-2.454-1.55-.566-1.86-1.132-1.034-.472-.723-.849-.415-1.227.415-1.131.206-1.699.103-2.454-2.274-1.698-1.033-.661-.62-2.453-1.655-.942-1.447-1.888-.31-.377-1.138.755-1.137.755-1.655-.284-1.86-.849-.932-5.567.103-1.038-.724-.188-1.137-1.038-.828-.849.248-.849.517-1.132-.93-.944-.31-1.793-.725-.943-.724-1.038-.62.566-1.656-.755-1.552-.283-1.242-1.32-1.034-1.227-.518-1.415.31-.849.517-1.604-.103-1.038-.414-1.226.517-.662.621-1.886-.21.794-.663.09-1.064.526-.676.397-.049.661-.434.706-.87.61-1.218 1.24-1.15.397-.87.132-.677.043-1.257-.175-.58.661-.725.175-.822.353-.919 1.762-2.127-.351-.097 1.408-1.788 1.323-1.354.131-.339.794-.29.309-.339 1.144-.483h.795l.792-.339.529-.58.661-.193.705-.824 1.101-.676.131-.339 1.63-1.064.881-.097 1.014-.629.75-.192 1.013-.049.175-.242 1.102-.145.264-.24.883-.147.13-.194 1.499-.096.131-.194 1.235-.339 1.497-.726h.397l.221-.435.661-.628 1.013-.485.528.05 2.203-1.646.88-.387.179-.29.968-.436 1.145-.29 1.322-.097.44-.582h.309l.528.388.442-.096.265-.58-.31-.537.882.052.438-.204.531.06.748-.34 1.146.193.264.533.529.145.398-.145.616.194.491.646 1.132 1.41 1.358 1.077 2.19.497 1.509.25 1.661.993 1.509.663.831 1.575.453 1.41.602.827 3.399.5 2.339.081 1.057.662.755 1.575-.228 1.326.228 1.822 1.207.746.377.745-.302.83-.604.248-.906.58.152.827.453.332-.075 1.077-.755.496-.53.498-1.13.331-.756 1.407-1.131 1.16H206.6l-.453.911.303.993.15 1.491v1.738l-.754.911-.228 1.324.228 1.076.906.166.677.331-.225.828-.905.911-.453.993.225 1.075 1.133 1.656 1.058.662.906 1.406.602 1.903.076 1.406.981 1.242-.302.496-1.357.25.15.776 2.339.827 1.511.827h1.66l1.282-.496h1.586l1.962.827 1.133 1.075 1.434 1.82 1.283 1.24.679 1.902.829 1.406.681.496-.302 1.322-1.056 1.158-1.587 1.323-.527 1.322.227 1.984 1.056 1.736.982 2.066 1.584 3.057 1.51 1.736 1.133.496 1.055 1.073-.075 1.983.528.908.197-.085Zm-85.794-29.611.971 1.752 3.115.248 2.83.744.963 1.055 1.415.434 2.15 1.49 2.038 4.154.34 2.418.453 1.488-.283 1.364h-.792l-2.095-1.612-.793-.93-1.132-.682-1.019.435-.679 1.053-1.132.496-1.302.124-.736.682-.793 1.302-1.301.743-1.699 1.985-.283 1.673-.51 1.364-.848 1.115-.794.371-.792-.681-1.019-.62-.283-1.302-.68-.557-.395-.868h-.85l-1.075.62-1.133.062-.565-.62-.135-.589.693-.578.44.048 1.321-.579 1.015-.868.351-1.013-.043-1.882.968-.049.31-.53.044-1.207.264-1.159-.219-.24.086-.869.177-.145.087-1.303-.043-1.158-.177-.676.078-.724-1.003.242-.616-1.014.175-.724.705-1.304.399-1.014.792-.917.263-1.544.485.385.308-.773-.131-.53.615.048.487.627.175.676.441-.048-.133-.724.266-.097.263.932Z"/>
  <path fill="#212A37" d="m218.419 124.517.562.661.614 1.032-.048 1.599-.614.98-1.085.568-.896.722.236 1.547.378 1.341-.236 2.681-.754 1.598-1.416 1.652-1.981 1.752-1.322 1.082-1.321 1.289-1.367.516-.66 1.134-.662 1.392-.991 1.082-1.083.928-.52.927-.492 1.581-.782.944-1.556.67h-2.642l-2.311.258-1.374-.182-.184-.024-.33-.979-.377-4.02-1.274-1.289-1.038-1.855-1.131-.721-1.227-1.341-1.086-.928-.188-1.392-.52-.67-1.131-.464-1.226.103-2.265 1.134-3.868-.051h-4.954l-3.161.567-2.783.98-2.736-.414-1.274-.927v-2.218l.519-1.288.755-1.032.425-1.392-1.132-2.269-.944-.619.047-.877.849-2.528.802-1.082.518-1.29.189-1.084-.802-2.012-.613-.867-.99-.723-.614-1.187-1.415-.207-.943.414-.802-.103-1.179-1.188-1.416-.722-1.085-1.032-1.132-.568-.614-.929-1.651-1.445-1.698-.878-1.368-2.064-.661-1.446-.754-1.033-.755-.309.378-1.137.943-.567.472-.93-.755-.93-1.51.052-1.934 1.085-1.274-.517-1.132-.31-.864-1.019.303-.142.848-1.115.51-1.364.283-1.673 1.699-1.985 1.301-.743.793-1.302.736-.682 1.302-.124 1.132-.496.679-1.053 1.019-.435 1.132.682.793.93 2.095 1.612h.792l.283-1.364-.453-1.488-.34-2.418-2.038-4.155-2.15-1.489-1.415-.434-.963-1.055-2.83-.744-3.115-.248-.971-1.752.353-.739-.529-.724.881-.193v-.917l-.529.145-.088-.435.308-.58.572-.627.266-.676.309-.338.219-.87.353-.483.221-.918.397-.965 1.145-1.257.307-.676.573-.434-.351-.918.22-.387-.044-.483.22-.58.616-.725.352-.724.616-.483.529-.883 1.886.21.662-.621 1.226-.517 1.038.414 1.604.103.849-.517 1.415-.31 1.227.518 1.32 1.034.283 1.242.755 1.552-.566 1.655 1.038.621.943.724 1.793.724.944.311 1.132.93.849-.517.849-.248 1.038.828.188 1.137 1.038.724 5.567-.103.849.931.284 1.861-.755 1.655-.755 1.137.377 1.137 1.888.311.942 1.447 2.453 1.654.661.621 1.698 1.033 2.454 2.274 1.699-.103 1.131-.206 1.227-.415.849.415.472.723 1.132 1.034.566 1.86 2.454 1.55 1.792.309 1.509.517 1.038 1.654.094 1.446-.565.62-.283 2.892.848.827.472.723-.472 1.137-.848 1.652.095 1.446 1.131-.104.943-.412 1.133.103.849.619 1.509.93.85 1.239.187 1.342.945.826 1.604.414-.094 1.548-.756 2.581v1.032l1.227.619 1.038.619-.943 2.787.565 1.652 1.32 1.341 1.888 1.444 1.888-.412 1.207-.509Z"/>
  <path fill="#212A37" d="m196.096 152.27-.551.77-.66.103-1.18.876-.331.464-.66 2.524-.471.515-1.086.824-.425.773-.33 2.111-.66.258h-1.273l-.567-.669-.331-.825-.282-1.133-.897-.257-.707.36-.896 1.752-1.982 1.493-.754 1.133-.472.927-1.274.721-1.746.206-2.028.155-.991.721-.66.875-1.038.875-.283 1.391-.543.577-1.226.617-.613.567-1.038.566-3.632.154-1.322.618-.896.72-.944 1.288-.753 1.389-1.37.258h-1.886l-.944-.979-.943-2.162-1.086-1.338-1.509-1.39-1.934-.515-4.953-1.029-1.37-.464-1.603-.258-1.792.052-.755.258-.849.566-.237 1.339.096 1.132.329 1.029.096 1.236v1.287l-.378.875-.66.773-1.37.36-1.084-.051-5.142.36-3.727.051-1.604-.463-1.462-.824-1.698-1.904-1.51-1.235-2.028-.619-2.69-.309-1.604-1.236-1.415-.823-2.454-1.647-2.452-1.339-2.218-1.03-.919-.37-1.935-2.009-1.509-2.112-1.604-1.958-1.179-1.596-.944-.567-1.227-.154-.943-.464-.849-1.443-.473-1.184-.847-1.495-.568-.721-.929-.88.818-.677 1.59-.815.396-.529.837-.578.265-.482.131-.673.397-.337.176.481h.484l.044-.433.355-.673-.749.096.264-.578.35.047 1.191-1.347.265-.433-.133-.433.705-.723-.308-.385.132-.433.749-.482v-.963l.396-.24.221-.723.351-.433.486-1.059.617-1.012.22-.096.616-1.686.663-2.214.836-2.264.925-1.686.572-1.59.177-1.494.441-.819.486-1.396 1.188-1.784.484-.435.573.049 1.234-.579 1.013.772.44-.145 1.235-.867.529.048.748.29 1.057.818.881-.048.265-.289-1.146-.819-.616-.627-.308-.53-.399-.289-1.142.048 1.056-1.735v-1.157l.264-.433.925-1.061.44-.242-.176-.577h.441l.573-.531.88-1.351 1.189-.047 1.058-.146 1.984-.577.615.096.354-.289 1.321.097.309-.145h1.013l-.088-1.254.484-.53.749-.481 2.689-2.605.132-.82.528-.194.529-1.446.044-1.061.572-1.398.307-.097.575-.675 1.554-1.207.135.59.565.619 1.133-.062 1.075-.62h.85l.395.868.68.557.283 1.302 1.019.62.792.681.491-.229.864 1.019 1.132.31 1.274.517 1.934-1.085 1.51-.052.755.93-.472.93-.943.567-.378 1.137.755.309.754 1.033.661 1.446 1.368 2.064 1.698.878 1.651 1.445.614.929 1.132.568 1.085 1.032 1.416.722 1.179 1.188.802.103.943-.414 1.415.207.614 1.187.99.723.613.867.802 2.012-.189 1.084-.518 1.29-.802 1.082-.849 2.528-.047.877.944.619 1.132 2.269-.425 1.392-.755 1.032-.519 1.288v2.218l1.274.927 2.736.414 2.783-.98 3.161-.567h4.954l3.868.051 2.265-1.134 1.226-.103 1.131.464.52.67.188 1.392 1.086.928 1.227 1.341 1.131.721 1.038 1.855 1.274 1.289.377 4.02.33.979.184.024Zm81.102 20.313-2.232.062-1.302-.803-1.075-.556-2.096-.556-2.888-.184-4.585-1.67-1.697-1.174-1.415-1.174-1.587-.618-1.187-.308-.906-1.051-.794-.68-1.019-.124-.451 1.36.282 1.112.736.742.17.741-.68.433h-1.188l-2.039.556-.962.37-.566.742.284.618.962.865-.171.865-1.244.617-1.415-.247-1.586-.493-2.094-.434-2.096-1.729-2.32-1.235-2.208-.619-3.735-.432-2.096-.186-2.206-.989-1.587-.802-1.189-.99-.538-.587-.877-1.328-1.302-1.236-1.359-.68-2.49.062-1.925.494-1.302.495-1.133.988-.961.68-1.473.123-1.245-1.667-.735-1.607-1.133-.99-1.868-.246-2.548-1.299-.453-.68v-.864l.511-1.052.225-1.484-.509-1.793-.68-.495-.46-.866.492-1.581.52-.927 1.083-.927.991-1.083.662-1.391.66-1.135 1.367-.516 1.321-1.289 1.322-1.082 1.981-1.752 1.416-1.652.754-1.598.236-2.681-.378-1.341-.236-1.547.896-.722 1.085-.568.614-.979.048-1.6-.614-1.032-.562-.661.018-.007 1.511-1.135 1.415-.929 1.698-2.374.567-1.341.943-1.446.376-1.445.661-3.097 1.228-1.342.943-.413h1.32l1.227-.413.096-.273.558-.245 1.737.248 1.206-.165.982-.909 1.813-.165 1.508-.743 1.737-1.074.905-.909 1.058-1.487 1.962-.331 1.584-.165 1.51-1.571.906-.247.755-.744.678-1.157.228-.909-.077-1.983-.753-.744-.454-.66-.151-.993.83-.745.377-.742v-1.572l.151-1.075 1.058-.66.603-.58 1.36-.166 1.056.265.755-2.066.604-.828h1.51l1.282-.165 1.511-.413 1.207-.248.906-.413 1.207-.166 1.209-.579 1.206-.91.529-1.157 1.131-.829 1.134-.248.98-.33.604-.993.982-1.157 1.283-.58 1.207.165 1.209.414 2.037-.164 1.358-.58.755-1.075.151-1.407.529-2.234 2.641-2.73 2.039-.414 2.114-.082 1.056-.415 1.433-.828.981-.993.53-1.49-.302-1.323-.906-1.076-.604-1.243.227-1.16.451-1.242 1.209-.661 1.132-.167 1.735.663 1.813.248 1.585-.579 1.434-1.325.83-1.075 1.737-.664h2.263l1.586-.663.906-.578h1.207l.256.305-.573.436-.573.194-1.278.822-1.233.337-1.145.58-.485.627v.582l-.485.29-.309.483v.483l-.484.483-.794.194-.219.434-.661.386.044.968-.881.096-.529-.097-.661.388-.925 1.013.264.58v.628l-.44.386.132.968-.572.58-.354.144-.307.58-1.101 1.207-.795.144-.309.773-1.011 1.016-.927.194-.221.24-.263.918-.747.725-.398.627-.132.531-.573 1.063-.618 1.931-.175.338-.617 1.835-.705 2.898-.309 1.834-.529 3.958-.087 2.122.044 2.944.22 1.787.486 2.121.307 1.11.573 1.495.572 1.013.177.819.706 1.593-.177 1.929.043 1.543.442 3.858.617 2.844.925 2.458.617 1.253.219.675.353.434.221.676 1.144 1.203.617.241.662-.048.529.627.659-.048.572.385.222.771-1.102.096.176-.337-.352-.338-.836.289-1.058-.771-.969.242-.22.578.617.53.086.578.618-.578.351.096-.042.627-.309.24-.178.53.31.386.484-.337.618.819.793.723-.177.289-.792.144-.485.241.176 1.493-.043 1.976.22 1.204.351.626-.307.53.131.963.266.337-.838 1.108-.97.048-.574.193-.571.482-1.057.385-1.057.145-.31.384-.395 1.397-.045 1.059.133.818.22.289.616-.048.618.193.572.481-.221.29.045 1.251.265.337 1.277-.049.354.482-.133.337-.705.049-.177-.241-1.057.144-.442.385-.528.048-.617.627-.22.481-.485.049-.353.432-1.407.626-.532.914.178.337-.045.626-.836.866-.089.338-.794.769-.879.626-.88 1.107-.399.913-.309 1.108-.396.769-.087.627-.53 2.261v1.635l-.176.722-.043 2.261-.486.577-.263.72v.434l-.618.914-.352 1.298-.661 1.49-.264.818.264 2.116.266.962-.089.797Z"/>
  <path fill="#212A37" d="m226.478 164.026-.311.563-.68.494-.848.433-.396.742v1.853l-.566 2.101-.397 1.174-.453.988-.849 1.174-1.868.37-.906.309-1.019 1.112-.508 1.111-.738.866-1.301.369-.623.742v1.482l.114 2.285-.68 1.05-1.132.679-1.133.432-1.075.308-.848 1.113.169 1.11-.51.864-1.078.556h-1.016l-1.528-.803h-.907l-1.189-.802-1.019-.309-1.415.37-1.018.433-1.643-.247-1.188-.309-1.019-1.234-.849-.803-.963.061-.849 1.051-.17 1.11-.452 1.05-.736.926-1.756.123-1.584-.555-1.472-.186-2.095.68-.566.246-.509.556-.624.432-1.471-.432-1.641-1.235-.85.124-.537.679-.964.37-.848.124-.679.925-.284.679-.679 1.173-1.133.371-3.226.061h-1.981l-.566.679-.509 1.234-.793 1.112-1.643 1.789-1.187.987-1.02 1.049-1.528.37-3.396-.185-2.945.124-.679.321-.396.924-.623 2.468-.51 1.11-.905.74-1.245.68-1.756.246-1.075-.185-1.075-.803-1.02-.062-1.245.557-1.642 1.048-1.019 1.11-1.019.494-1.245.061-1.303-.247-.961-.679-.284-.801-.962.062-.283.988v1.663l-.34.618-.735.986-.567.186-.339-.987-.17-1.85-.623-.865-1.019-.431-1.075-.186-.736-.8-.85-.678-1.188.308-.623.863-.227.986-.453 1.111-.792.616-.34 1.665-.057 1.542-.452 1.603-.849.555-1.189.123-1.811 1.418-1.019 2.219-.226 1.109-.623 1.605-.397 1.232-1.246.985-1.074 1.479-.963.74-1.359.493-1.188.554-1.359-.37-1.755-.307h-3.85l-1.415-.247-1.698-.802-1.698-.676-1.19-.801-1.358-1.481-1.925-.122-1.812-.494-1.018-.183-1.02-2.898.284-1.295.453-.431-.227-1.234-1.245-1.479-.623-3.084-1.189-1.233-1.131-.678-1.869.185-2.038-.74-1.586-.37-1.415-.925-1.755-.74-1.754-.926-1.359-.986-.396-1.665.396-1.235-1.019-2.283-.452-1.48-1.02-1.604-1.019-1.234-.679-1.173-.784-.442.22-.24.042-.721-1.63-1.392-.35.047-.265-.384h-.398l-.528-.432-2.204-.768.221-.193 1.059.384.395-1.441.177-.192.792-2.306.882-.192.132-.673.881-1.778.044-1.105.705-1.923 1.058.193 1.101-2.355.617-.049.088.578-.44.384-.22.962v.912l-.309.481-.22.721-.308.433-.529 1.249h-.398l-.484-.337h-.528l-.089.529-.749 1.826-.089.529-.792 1.873.309.384.529-.095v-.626l.309-.143.306-1.057.53-1.153.883.385.483.912.353.391.264-1.016-.308-.24-.178-.913.574-1.633.97-2.115.66-2.211.309-.192.619.289.261.673-.748.768.175 1.346.704-.866-.043-.72.353-.72-.045-.626-.265-.24v-.673l.707-.433.352.288.705-.047.309-.529-.486-.096-.88.144-.397-.096-.353.24-1.013-.144-.31-.24.089-.481h.793l-.44-.721.045-.337 1.233-2.499.573.193.265.335.439-.384.617.384 1.146.481.705-.577.089-1.441.219-.625-.396-1.684.265-.865.44-.384h.483l.353-.675.222-.047.087-.77.616-.529.09-.288 1.453-1.299.352-.818.486-.576-.265-1.058.352-.097.573-1.01.088-.962.705-.962v-.77l.308-.529-.131-.433.616-.337-.352-.529.704-.914.44-.289.75-.866.66-.433.749-1.395h.574l.852-2.262.929.88.568.721.847 1.495.473 1.184.849 1.443.943.464 1.227.154.944.567 1.179 1.596 1.604 1.958 1.509 2.112 1.935 2.009.919.37 2.218 1.03 2.452 1.339 2.454 1.647 1.415.823 1.604 1.236 2.69.309 2.028.619 1.51 1.235 1.698 1.904 1.462.824 1.604.463 3.727-.051 5.142-.36 1.084.051 1.37-.36.66-.773.378-.875v-1.287l-.096-1.236-.329-1.029-.096-1.132.237-1.339.849-.566.755-.258 1.792-.052 1.603.258 1.37.464 4.953 1.029 1.934.515 1.509 1.39 1.086 1.338.943 2.162.944.979h1.886l1.37-.258.753-1.389.944-1.288.896-.72 1.322-.618 3.632-.154 1.038-.566.613-.567 1.226-.617.543-.577.283-1.391 1.038-.875.66-.875.991-.721 2.028-.155 1.746-.206 1.274-.721.472-.927.754-1.133 1.982-1.493.896-1.752.707-.36.897.257.282 1.133.331.825.567.669h1.273l.66-.258.33-2.111.425-.773 1.086-.824.471-.515.66-2.524.331-.464 1.18-.876.66-.103.551-.77 1.374.182 2.311-.258h2.642l1.556-.67.782-.944.46.866.68.495.509 1.793-.225 1.484-.511 1.051v.865l.453.68 2.548 1.299 1.868.246 1.133.99.735 1.607 1.245 1.667 1.473-.123.961-.68 1.133-.988 1.302-.495 1.925-.494 2.49-.062 1.359.68 1.302 1.236.877 1.328Z"/>
  <path fill="#212A37" d="m101.947 223.981-.099 1.327-.792.184-2.434.185-1.528-.123-.227 1.233.565 1.54.568.615.622 1.542-.34 2.279-.85 1.109-1.018.679-.566 1.291-.057.801.566.986v4.925l-.113 1.097-.282 1.725-.453 1.477-.34 1.786-1.133 1.97.453 1.661.113 1.109-.339.369.566 1.6.962.922 2.095 2.277.961.677 1.586.308 1.189-.677 1.132-.245.736.983-.396 1.969-1.359 1.168-1.925.432-2.826.29-.174.017-7.416-1.23-3.849-.923-10.19.185-5.094-2.769-3.454-.861-1.246-.432-.905-.922-.736-.369-.679.491-1.812.309-7.247-.247-2.037.801-3.454.123-4.755.43-1.98-.8-2.095-.492h-1.189l-.076-.332.735-.19-.09-1.055-.395-.814-.617-.192-.264-.287-.836-.478.44-.528v-.477l-.795-.385-.615-.095-.309-.336v-.622l.352-.097.75.287.483-1.627.353.478.661-.431 1.058.191.352-.047.704-.623.794-.527.22-.91 1.144-1.676.31-1.296.441-.526.925-1.485.53-1.487.218-.239.222-.816.75-1.341.262-.863-1.32-.143-.793-.241-.045-.575.574-.959.394-.43.398-.815.44-.576.528-1.056.398-.477h.308l-.132-.72.484-1.152.618-1.917.397-.288 2.466-.048-.043-.575.307-1.726.397-.433 1.1-2.542 1.543-2.014.353-1.248.44-.047 1.41-.959 1.234-.624 1.278-.768h.528l.793-.478-.045-1.008.265-.769.484-.961.485.048 1.015-2.398-.618-.384-.308-1.103-.66.767h-.618l-.617-.384.176-.91-.484-.243-.352.385.221.721-.53.094h-1.543l-.705.097-.572-.335.044-.384.398-.385.263-.576.705-.815.131-.384.662-.913.397-.287v-.384l.793-.815.441-.675 1.496.145.573-.192.222-.672.175-1.056.75-.864-.089-.288-.615-.432.748-1.105 1.013-1.297h2.82l.75-.095 1.012.095.352-.432.53-.048.263-.576-.704-.624.704-.768.441-.721h.264l.31-.575 1.012-1.009.221-.864.485-.721 1.365.721.133-.193.784.442.68 1.173 1.018 1.234 1.02 1.604.452 1.48 1.02 2.283-.397 1.235.396 1.665 1.36.986 1.753.926 1.755.74 1.415.925 1.586.37 2.038.74 1.87-.185 1.13.678 1.19 1.233.622 3.084 1.245 1.479.227 1.234-.453.431-.284 1.295 1.02 2.898 1.018.183 1.812.494 1.925.122 1.358 1.481.294.197Z"/>
  <path fill="#212A37" d="m96.984 263.452.04.663.376.513.377 1.334.755 1.69.52 1.486.188 1.384-.755 2.255-.802.359-.613 1.332-.094 2.819.188 1.23.85.667.235 1.125v1.793l-.282.819-.614 1.229-.33 1.281-.614.757-.425 1.281-.376 3.43.094 1.127.613.257.85-.819.471-.768.613-.411.425.718.142 1.382.613 1.28 1.321.461 1.65.717 1.369-.512 1.038-.614.896-.82 1.558-.052.753-.46.472-.87.66-.256 1.322.256.708.972.225 1.568-.179.736-.613.768 1.085 1.69.236 1.433v1.484l-.708.819-.943.307-1.226-.513-1.18-.817h-1.462l-.99.41h-1.746l-1.038-.154-.849-.717-1.935.971-1.085.307-.566-1.175-.095-1.537-1.415-.665-1.084.307-.849.511-.66.563-1.463.513-4.152-.102-2.548-.768-1.886-.359-2.784-1.178-2.358-1.33-1.65-1.792-1.087-1.433-.14-1.28-.85-1.025-1.132-.767-2.265.716-.99.615-4.01.255-1.32.361-1.983.921-1.273-.461-1.462-.77-1.416-.101-1.887.819-1.133 2.1-1.98.717-.755.461-.378 1.023-.942.971-1.369.206-1.416.461-.66.972-.378 1.483-.518 1.076-2.265.052-1.463.511-.848.666-1.133 1.177-.329 1.33-.708.87-1.18.613-.802.717-.613.818-1.227-.561-.424-1.075-.755-.409-.85.357-.612 1.024-.095 2.405-.472 1.431-.613.819-.848.134-1.935.155-1.557-.614-1.226-.565-.85-.153-1.133.205-.707.461-1.32-.053-1.038-.512-.566-.766-2.453-.102-.74-.331-.133-1.116.62-.097.174-.525-.219-.764-1.456-1.96-.174-.574.174-1.29-.13-.907.484-.574.132-1.196-.44-.237v-1.961l.174-1.434.883-.861.263-.811h-.308l-.309.715-.66.096.087-1.195-.087-1.483.087-1.242-.219-.384.132-.668.131-1.578.75-1.77.66-1.003.134-.813.395-.767.045-.527.308-.811.354-.433.924-2.198.836-.861.53-1.006.661-.716.748-.288.396.432.62-.049v-.575l-1.854-.383-.66.143-.44-.382.044-1.197.22-1.482-.66-.096-.617-.526.132-.479.528.192v.574l.572.095.178-.382.177-1.676.263-1.293.396-1.051 1.014.048v-1.148h-.618l-.308-.624-.484-.335.573-1.196-.442-.384.09-.669.44-.335.131-.671.31-.478.395.047.881-1.675-.439-.241-.309.623-.44.096-.265-.478.442-.575.483-.19-.13-.673-.223-.189-.66.381-.706-.143-.529.383-.395.574-.617-.382.661-.382.573-.625v-.479h.924l.4-.526 1.32-.956.792-.384.748-.575.882-.91.484.192v.573l.926.48.75.24-.178.431.486.286.838-1.101.22.144 1.32-.096.046-.335-.794-.142-.53-.242.222-.333.924.095 1.542.383h.75l.484-1.15.132-1.15 1.06.098-.09.764.704.241.808-.193.076.332h1.19l2.093.492 1.981.8 4.755-.43 3.454-.123 2.037-.801 7.247.247 1.812-.309.68-.491.735.369.905.922 1.246.432 3.454.861 5.093 2.769 10.191-.185 3.85.924 7.415 1.229.174-.017Zm-33.106 48.201 1.208-.9 1.584-.575 1.208.656.906 1.718 1.208.738.904-.245 1.133-.083.982.409.604.82 1.057.735.377 1.228.831.489.829.739-.452 1.062-.83.983-.831.246-.528 1.227-.907.326-1.811-.571-.454-.655-.527-.082-.679.573-1.133 1.227-.83 1.554-1.736.327-.83-1.144-.981-.901-.755-1.391-1.585-.654h-2.492l-.753-.247.151-1.063.376-.571.075-1.066-.754-.9-.755-.736v-.654l.755-.736.905-.329h1.057l1.283.329 1.284-1.23.906-.653Z"/>
  <path fill="#212A37" d="m111.401 294.056 4.143-.147 1.057.326 1.207.82 1.813.41 1.812.573 2.566.081 1.358.574.453 1.393.227 4.504-.604 1.229-.83.655-.755 1.063.151 1.884.83 1.229 1.132 1.228.378 2.128.377 2.782.831 1.882 1.207 1.147 4.756.571h1.585l1.207-.736 2.793-.245 3.17.162 1.51.164 1.888.41h1.32l.906.49-.303.899-3.02-.162-1.207.817-1.66.492-3.321.408-1.132 1.309-.831 1.8-2.868 1.636-1.283.081-1.283.982-.981 1.636-.452 1.718-1.208 1.637-1.585 2.615-1.812.736-1.358-.083-.831.982-1.057 1.962-1.057 1.422-1.736.573-2.113.081-1.358 1.308-.453 1.471-1.66 1.146-1.132 1.225-2.944 1.063-1.434.981-.227 2.042-1.736.245-1.812-.245h-1.057l-.68-.898-4.227.163-.15 1.798-.227 1.308-.227 1.961.15 1.551.68 1.309.981 1.142.227.653-.378.817-.458.331-.222.159-1.735-.163-1.888.246-.679.407-1.585-.163-.906-.817-1.585-.163-1.057.327-1.66 2.041-1.358.163h-1.359l-.98-1.062-1.586-.57-1.509-.082-.906-.245-.83-.817.15-1.879.906-.571.377-1.145-.15-1.388-.303-.979-.83-1.145-.075-2.125.15-1.553v-1.715l1.661-2.697.227-1.472-.98-1.471-1.209-.164-2.415-.899-.452-.736 1.584-1.879-.604-.655-1.283-.016-2.113.163-.453-.572-.075-1.39 1.812-1.391.378-.653-.756-1.391-.905.491-2.49.081-1.058-.899-1.509-1.146-.756-.734-.83-.492-1.283-.326-1.81.98-1.436.083-.98-.654-.907-.328-1.584.41-.83.735-1.435.409-3.32.081-1.889.736-1.585 1.145-1.057.655-1.435.734H45.31l-.528.573-.377 1.145-2.566.409-.604.817-.227 1.881-.453.898-2.339.164-.68.489v1.881l-.453.899-1.963.408-1.584.898-1.132 1.555-.604 1.879-.604 1.063-1.737.654h-1.32l-.528-.164-.755-.735-.68-.082-.226.898-.906.083-1.057-.899-.814-1.096-.906-.947-.573-.263-1.396-.391-.175-.442-.706-.811-1.102-.669-1.717.143-.927-.428.045-1.526.705-.145.177-.381-.22-.431h-.529l.711-1.753.513-.915.121-.883 1.117-.491 1.841-1.046.182-.948.574-1.274.604-.524.33-1.088-.397-1.766-.22-.335-.838.286-.264.716-.309-.237-.176-.765-.089-1.908.132-.098.133-1.24-.433-.559-.378-.86.113-1.269v-1.268l-.713-.677-.925.572-.353-.429.043-.574.795-.811.322-.049v-.732l.69-1.894.527-.479.358-.669-.142-.355-1.397-.573-2.433-.266-.836-.763-.265-.622-.088-.954.045-2.485.175-.478.441-.382h.836l1.366.382.882.048.705-.269.74.331 2.452.102.566.767 1.037.512 1.321.053.707-.461 1.133-.205.85.153 1.227.563 1.557.614 1.935-.154.85-.134.612-.818.472-1.432.095-2.404.612-1.024.85-.358.755.41.425 1.074 1.227.562.613-.817.802-.717 1.18-.613.708-.87.33-1.33 1.132-1.177.85-.666 1.462-.511 2.265-.053.52-1.075.376-1.483.66-.972 1.416-.461 1.37-.206.941-.972.378-1.023.755-.461 1.98-.717 1.133-2.1 1.887-.819 1.416.102 1.462.77 1.273.461 1.981-.921 1.321-.36 4.01-.256.99-.614 2.265-.716 1.132.767.85 1.025.141 1.279 1.086 1.434 1.651 1.792 2.358 1.33 2.783 1.178 1.887.358 2.548.769 4.151.102 1.463-.513.66-.563.85-.512 1.084-.307 1.415.665.095 1.537.566 1.175 1.085-.307 1.935-.972.849.717 1.038.154h1.746l.99-.41h1.462l1.18.817 1.227.513.943-.307.708-.819v-1.483l-.236-1.434-1.085-1.689.613-.769.178-.732Zm-47.523 17.597-.905.653-1.284 1.229-1.283-.329H59.35l-.905.329-.755.736v.653l.755.736.754.9-.075 1.065-.376.571-.15 1.063.753.246h2.491l1.585.654.756 1.392.98.9.83 1.145 1.736-.327.83-1.555 1.133-1.227.68-.573.526.082.454.655 1.811.571.907-.326.527-1.228.831-.246.83-.982.452-1.063-.829-.738-.83-.489-.378-1.229-1.057-.734-.604-.82-.98-.409-1.134.083-.904.245-1.208-.738-.906-1.718-1.208-.655-1.584.574-1.209.904Z"/>
  <path fill="#212A37" d="m98.669 359.544.892.476.604.941v.979l-.792.898-.642 1.183-.944 1.023-.34 1.714-.188 1.428-1.774 2-.944.931-.792 1.042-.85.366-1.302 1.164-1.075 1.654-.793 1.101-.396 1.468-.056 1.592-.453.978-.227 1.47-1.132 1.1-.622 1.225-1.642.244-2.095 2.447-.905.307-2.888 2.507-.736.429-.849.979-.566 1.529-1.528 1.285-3.057 2.262-.566 1.101-.679 1.04-1.755.183-.793.551v1.285l-.113 1.039-2.152 1.528-.17 1.161-.452.733-1.104 2.714-.397 1.712-1.245 1.162-.283.855v1.527H60.83l-1.019-.486-1.132-.123-1.302.123-1.245.731-.51.796-1.076 1.038-.736 1.039-.906.733-1.132.489-1.641.062-2.265-.062-1.471-.428-1.415-.121-1.359-.429-1.642-.244-.736-.55-.905.305-.341.673-.622.366-1.246-.794H34.79l-1.416-1.65-3.679-.489-1.784-.549-.735-.43-.737-.182-.979-.034-.405.143-1.19.903-.307-.143.087-1.378.22-.999v-1.761l-.483-1.95-.792-1.524-.662-1.093-.044-.427-.319-.42-.21-.674-.309-.287-.749-1.19-1.189-1.285-1.939-1.759-1.63-1.618-2.247-1.857-.485-.19-.88-.667-.705-.333-1.719-1.094-.352-.334-.881-.429-1.323-.333-.395-.286.309-.427.22-1.05-.529-.38-.749.667-.794.333-.572-.715-.529-1.045.177-.333h.792l.441-.286-.043-.478-.442-1.189.495-.239-.053-.379-.618.238-.309-.954-2.422.048-.133.668-.616-.287-.177-.477.221-.667.043-.665.309-1.477-.087-1.191.923-.716 1.323-.855.485-.43.879-.524.795-.286 1.542-.856 1.714-.144.267-.723-.044-.467.222-.62-.352-1.382-.804-.517-.453-.898-.339-2.203-.34-.859-.566-.325-.34-.694.114-1.429.569-.455.529-1.148.66-1.049.089-.429.527-1.144.221-.763-.221-.476.221-.43.133-1.668.026-1.234 1.119-.673 1.057-.19.353-.476v-.622l.705-.62.22-.524.88-.428-.308-.431-.396-.048.043-1.285.573-.622.574-.047.793-.81-.103-.534-.755-.492-.905-.734-.151-1.022.812-.795v-.573l-.925-.143v-.571l.351-.431.618-1.191.398-1.337.13-1.097.265-.095 1.014.81 1.145.096.176-.142 1.365-.383 1.19.954.573.929.22-.057 1.395.391.573.263.907.947.814 1.096 1.057.899.906-.083.226-.899.679.083.755.735.529.164h1.32l1.737-.654.604-1.063.604-1.879 1.132-1.554 1.584-.899 1.963-.408.453-.9v-1.88l.68-.49 2.339-.164.453-.898.226-1.881.605-.817 2.566-.41.377-1.144.528-.573h1.962l1.435-.735 1.057-.655 1.584-1.145 1.888-.736 3.321-.081 1.434-.409.831-.735 1.584-.411.906.329.982.654 1.434-.083 1.811-.981 1.283.327.83.492.756.734 1.509 1.146 1.056.899 2.492-.081.905-.491.756 1.39-.378.654-1.812 1.39.076 1.39.453.572 2.113-.163 1.283.016.604.655-1.584 1.879.452.736 2.415.9 1.208.164.981 1.47-.226 1.472-1.661 2.697v1.715l-.151 1.553.075 2.125.831 1.145.302.979.151 1.388-.377 1.144-.907.572-.151 1.878.831.818.906.245 1.509.082 1.585.57.982 1.062h1.359l1.358-.163 1.661-2.041 1.056-.327 1.585.163.906.817 1.585.163.679-.407 1.888-.246 1.735.163.222-.159ZM63.461 478.528l.926-.119.642-.731.566-.854.226-1.34.491-.976.227-2.194.68-2.397.414-.569-.188-1.504-1.472-2.032h-.792l.037-9.22.188-2.075.341-1.098.15-.977.642-.448.453-.771.717-2.237-.038-2.889.53-.978.111-8.918.68-1.954.981-3.543.566-3.542 1.132-.771 1.057.039.868.611.793-.04.904.569.718.732 1.773.083 2.076-.856 1.396.082 1.321.651 1.585.123.867-.449.981-.936.982-1.343.49-1.305.83-.855 2.264-1.425 1.36-1.059 1.206-1.141 2.076-.122 1.887-.489 1.736-.121.981.448.604 1.1.302 1.589.905.568 1.17.082 2.453-.61 1.133-.693.528-1.1 1.019-1.303h1.02l1.85.163 1.32.326 3.51 2.158 2.793 3.788 1.057.977h1.133l.754-.489.83-.977.906-.815.925-.366.943-1.019.867-.773 1.586-.162 1.057.406.604.692.793.447 1.32-.487 1.888 1.343.021.11.582 2.944-.037 1.872.415.855 1.358.813 1.962.123 1.058.733.49.773v3.418l.415.652-.604.732-.34 1.179v3.134l-.528 1.344-.528.814-.113 1.667-.491.936-.679.569h-5.038l-.868.732-.943 2.156-.642.813-1.208.365-1.472.205-.68.364-1.698.529-1.207-.121-.642.528v.886l-.378.651-.717.814-.528 1.868-.831 1.099-.528.976-1.057 1.383-.188.977-.415 1.097-.717.773-.717 1.179v3.09l-.643.689-.453.936.303.935.075.894-1.057 2.316-.453 1.138-.188 1.131.566 1.097.491.568.604 1.179.188 1.665 1.283 2.112.49 1.139.038 1.988-.265 1.056-.943.65-.642.934.151 1.383.415.812-.113.893.642.771.755.326.905.934.68 1.054 1.773 1.868.34 1.259.452.561-.414.73-.793.813-1.887.162-1.133.405-.489.974-.303 1.34-.415.934-.642 1.988-.491.771.038 1.258.906.648.868.812 1.019 1.097 1.735.77.944.041.528.933 1.509 1.38.189 1.825-.038 1.582-.717.607-.868.527-.264.608.527.813.68.356.868.812.793.932.453 1.056-.83 1.541.075 1.337.943.365h1.358l2.49 1.298.567.811.679.486 1.472.203 1.095.242.905.69.717.851.756.649 1.057-.122.755-.607 1.019-.569 1.02-.08.561-.163.178.394v1.136l-.397.522-.351.849-.045.949.22 1.088.22.377-.089 1.185-.924.992v.758l.22.521-.043 1.088.352.946v.897l-.352.758.043.757.354.425v.994l-.354.899.704.661.045.566-.265.381-1.41 1.04-.086.614.086.803.617 2.033.441.568.44.048 1.014.519-.44.567-.089 1.371-.484.71-.573.613-.043 1.845.307.615-.043 1.229.088.519v2.268l.618 1.372.308.379.132.707-.484.236-1.146.945-.308.426v1.276l-.837.612-.838.236v1.419l-.221.661-1.497.709-.617.474-1.364.612h-.927l-.529.426-.131 1.228.353.331-.044.897-.573 1.511-.178.756.09 1.229.396 1.56.705 1.132-.044.425.792.615.838 1.32v.236l.528.851-.087 1.274.528.897.395.331-.309.377-.612.332h-1.323l-.704-.613-.309-1.039-.088-1.417-.882.049-1.014-.71-.308-.896-1.278-1.182-.44-.802-.881.331-.969-.096-.528-.521-.133-.563-.309-.049-.177.612-.617-.045-.086-.898-.837-.33-1.543.094-.353-.234-.44-.615-.485-.095-.704-.425-.529-.991-.441-.236-.572.048-.177.331-.439.094-.133.471-.969.379-.352.473-.31.944.044.85.22.425-.044.757h-.307l-.266.519-.484.235-.045 1.229-1.938.331-.483-.283-.97-1.464.044-.898-.308-.283-.838.237-.265-.661v-1.039l.22-.614.045-1.463.089-.143-.045-1.512.529-.991v-.993l-.484-1.182-.707-.66v-.425l-.307-.71-.661-.188-.925-.993-.573-1.275-.043-.474-.31-.282-.484-1.181-.264-.897.087-.852.31-.661.396-.473.925-.52-.265-1.513.529-1.086 1.057.046.354-.567.133-.71-.089-.803-.704-2.222-.354-.379.265-.424.396-.189.706-.047 1.322-.993-.177-.756-.132-1.514-.396-.472-.133-1.041-.439-.757.131-.708-.354-.238-.22-.566-.439-.142-.309-.566.176-.567-.793-.758-.045-.711.441-.849-.661-.993-.043-.615.132-.711-.485-1.277-.132-1.466-.792-1.845-.44-.473-.222-1.278.396-.709v-.567l-.969-1.704-.22-.046-.529-1.28-.044-.613-.66-1.137-1.498-1.608-.88-.758-.928-.614-.132-.331.176-1.374.265-.332v-.567l-.309-.521-.309-1.041-.132-.805-.528-.853-.133-.614-.043-1.896-.264-.568-.53-.615-.22-.663-1.762-1.94-.97-.947-1.103-.805-.88-.901-.705-1.372-.266-.995-.57-.664-.133-.377-.528-.189-.22-.712-.618-.806-.572-.33-.529-.521-3.614-2.653-.969-.521-.439-.475-.44-.096-1.014-.662-.705-.284-.75-.521-3.524-1.754-.44-.379-1.673-.948-.353-.284-1.367-.568-1.85-1.091-2.556-1.895-.66-.333-.925-1.138-.926-.994-.573-.948.573-.475h.661l-.353-.521h-.397l-.838.616-.22-.994-1.224-.617v-8.821l.025-.842Zm-6.115 30.185.51.79.226.915-.623.547-.962.305-1.528 1.703-.566.853-.68.729-1.415-.061-.283-.975.51-.911.623-.608.113-.914.623-1.277.68-.853.735-.485 1.132.06.905.182Z"/>
  <path fill="#212A37" d="m133.114 424.545-.021-.111-1.888-1.342-1.32.487-.793-.447-.604-.693-1.057-.406-1.585.162-.868.774-.943 1.018-.925.366-.906.816-.83.976-.754.49h-1.133l-1.057-.977-2.792-3.788-3.51-2.158-1.321-.327-1.849-.163h-1.02l-1.018 1.303-.529 1.1-1.132.693-2.454.61-1.169-.082-.906-.568-.301-1.589-.604-1.099-.98-.449-1.738.121-1.886.49-2.077.122-1.207 1.14-1.359 1.059-2.264 1.425-.83.855-.49 1.305-.982 1.343-.982.935-.867.449-1.585-.123-1.32-.651-1.398-.082-2.076.856-1.773-.083-.718-.732-.905-.569-.792.04-.869-.612-1.056-.039-1.132.772-.567 3.542-.98 3.543-.68 1.954-.113 8.918-.529.977.038 2.889-.717 2.237-.453.772-.642.448-.15.977-.34 1.097-.189 2.076-.038 9.219h.792l1.472 2.033.19 1.503-.415.57-.68 2.397-.227 2.195-.49.975-.226 1.34-.567.853-.64.732-.927.119-.753.002-.448.634-.118 8.93-.342.378-.573.049-.66-.189-1.543-.761-1.719-1.279-1.408-.9-1.85-1.471-.75-.759-.529.144-.264-.665-.924-1.044-.398-.14v-.524l-.572-.331-.265-.616-.793-.522-.44-.665h-.529l-.793-.9-.837-.664h-.22l-.795-.808-1.012-.19-.423-.551.272-1.268-.574-1.203-1.54-1.561-2.203-2.602-2.265-3.478-.18-1.333.04-.385-.618-.522.31-.286-.442-1.138-.837-.759-.352-.998-.264-.237-.22-.805-.088-1.568.175-.902.265-.473.617-.667.44-.045.837-.761-.044-2.279.308-.57.221.76.043.712h.485l.264-.522-.132-.619.177-.806-.265-.712v-.569l.53-.19v-.806l-.793-.477-1.236 1.181-.923-1.846v-.568l-.44-1.332-.398-.284-.13-.524-.575-1.044-.22-.855-.748-1.663-.529-.758-.043-.477-.354-.379-.22-.808-.794-1.806-1.277-3.229-1.058-2.424-.749.238-.837-.191-.13-.952.748-.094.352-.333-1.366-4.419-.264-.333-.397-1.141-.44-1.901h.794l.703.284.663-.761.086-1.234.442-.287.131-1.045h-.836l-.529.427.132.618-.308.095.22.999-.75.284-.308-1.091-.484.141.353 1.093-.397-.045-.44-1.095-.134-.761-.528-1.474-1.366-3.472-.264-1.284.572-.617 1.066-.809.98.034.736.182.735.43 1.784.549 3.68.489 1.415 1.65h3.34l1.245.794.622-.366.341-.673.905-.305.736.55 1.642.244 1.36.429 1.414.121 1.471.428 2.265.062 1.641-.062 1.132-.489.906-.733.736-1.039 1.076-1.038.51-.796 1.245-.731 1.302-.123 1.132.123 1.02.486h2.037v-1.527l.283-.855 1.245-1.162.397-1.712 1.104-2.714.452-.733.17-1.161 2.152-1.528.113-1.039v-1.285l.793-.551 1.755-.183.68-1.04.565-1.101 3.057-2.262 1.528-1.285.566-1.529.85-.979.735-.429 2.888-2.507.905-.307 2.095-2.447 1.642-.244.622-1.225 1.132-1.1.227-1.47.453-.978.056-1.592.396-1.468.793-1.101 1.075-1.654 1.302-1.164.85-.366.792-1.042.944-.931 1.774-2 .188-1.428.34-1.714.944-1.023.642-1.183.792-.898v-.979l-.604-.941-.892-.476.458-.331.378-.818-.227-.653-.98-1.142-.68-1.308-.15-1.551.225-1.961.227-1.308.15-1.797 4.227-.164.679.899h1.057l1.812.245 1.736-.245.226-2.042 1.434-.982 2.944-1.062 1.132-1.225 1.66-1.146.453-1.471 1.359-1.307 2.113-.081 1.736-.574 1.057-1.422 1.057-1.962.831-.982 1.358.083 1.812-.736 1.585-2.616 1.208-1.636.452-1.718.981-1.636 1.284-.982 1.283-.081 2.868-1.636.831-1.8 1.132-1.308 3.321-.409 1.66-.492 1.207-.817 3.02.162.278-.828 3.744.204 1.434.736 1.623.737 1.397 1.022.302 1.758.566.941.453 1.138 1.056.164.453 1.349-.226 3.312-1.057.614-2.114.818-.641 1.185-.868 1.349-.868.531-.755 2.209.679.448 1.396.573 1.057.9 1.661.735 1.661 1.145 1.886 1.471 1.359.981.302 1.267-.151 1.716-.332.322-.384.372-1.586.612-1.66.819-1.737 1.061-1.698.883-2.151.531-1.623.491-1.471.04-.756.94-1.47 2.37-1.738 1.388-1.056 1.225-.944.491-1.358.204-.868.571-.792.694-.228.777.378.694.114 1.388-.567 1.183v2.957l.453.654-.037.775-.567.734-1.019.613-.452 1.02-2.076 2.164.113 11.776-.717 1.265-1.208 1.67-.528 1.226.113.775.605.693.904 1.59.114.938-.49.856-1.813 1.102-.943.652-.452 2.12-.566.774-.755 1.344-1.095 1.224-1.019 1.347-1.019 1.467-.906 1.14-.528.857v4.84l.604.979.453 1.344.15 2.525.945 3.302.905.732 1.358.122 1.51.368 1.094 1.017.378 1.263-.075 2.322-.605.935Z"/>
  <path fill="#212A37" d="m232.304 326.045-.266.918-.439 1.1-.309.332-.133 1.242-.264.479v.715h-.439l-.311.573v.811l-.265.097-.219 1.717-.264.907-.046.716.222.524v.717l-.354.668.133.715-.308.335-.397 1.05.044 2.244-.265.57v1.146l-.396.428-.219.525v.715l-1.146-.19-.663.287-.703.619-1.984 3.006-.044.571-.572.429-.485 1.384.179.715-.134 1.289-.66.286-.528 1.573v.858l-.441 2.193-.266.237-.142.674.099.471.529-.095.353.666-.927 1.049-.615.906-.397.238-.791-.048-.178.525-.617.333-.396 1.335.044.905.264.524.089 1.19.265.574.616.713-.133.859.662.521.131 1.003-.175.19-.132.857-.354.858-.616.381-.133.427.088.67-.22 1.046.22.191.309 1.143.44.477.572.335.618.142.044.286-1.189 1.382-.661.143-.662-.479-.308.525v.382l-.97.999-.352 1.334-.264.239-1.189.095-.308-.144h-1.323l-.572.523-.705 1.048v.905l-.528.43.353 1.046-.617.239-.705.571-.178.522-.087.953-.177.334v1.284l-.307.238.042.62-.307.57-.573 1.428-.09.904.178.239-.573.428.132.667-.351.57-.529.049-.44.286.044.901-.441.764-.439.142-.354 1.381.266.285-.221 1.047-.484.569-.221.906-.44.428v.477l-.66.855-.352.048-.529.762-.572.522-.09.524-1.188.904-.617.046-.396.715-.572.286-.485 1.188-.176.762-.132 1.284-.528.333-.046.666-.352.522.045.429-.485.57-.089.476-.837.571-.396.571-.131 1.045-.618.477-.176.807-.309.668-.704 1.045-.265.143-.749-.049-.572.572-.441.951.177.619-.177.379-.66.285-.794-.57-.793.142-.133.381-.925-.048-.396.238-.749-.143-.134.476-.969.476-.264.476-.749.522-.705.904.088.808-.22.95-.485.618v.523l.264.379.662.332-.089.334.308.95.31.38.22.903.397.951.264 1.092v.81l-1.19.901-.702-.381-.839.713-.483.763-.045.854-.353 1.473-.353.428-.484.141.176.856.616-.332-.572 1.094-1.587 1.139-.881.191-1.277 1.188-3.789 4.037-.882.664-.748.143-1.806 1.14-.44.379h-.882l-.925.333-.527.381-1.323.711-.836.713-.396.096-1.939 2.089-.617.475-2.291.95-1.234.854-1.057 1.378-.704 1.518-.838 2.137-.264 1.187-.572 2.087-.354 3.418.089 1.187-.133.379-.618.522-.703.899-.44.144-.794.807-.484.284-.794.808-.529.758-.482 1.139-.221.806-.309.617-.439 1.661-.793 2.322v.333l-.706 1.661-.088.473-.44.901-.177 1.232-.484 1.279-.528 2.229-.309.899-.309 1.612-.316.808-.088.711-.838 1.848-.088.476-.661 1.656-.176.76-.572 1.421-.705 1.043-.529 1.469-.221 1.186-.483.946-.353.379-.485 1.421-.088.854-.53 1.61-.086 1.231-.97.899-.133.662-.661 1.278-.22.902-.22.236-.396 1.751-.133 2.132v1.324l-.087.947v3.268l.132 1.183.044 1.42.221.853v.569l.265 1.04v1.137l.351.788-.561.163-1.02.08-1.019.569-.755.607-1.057.122-.756-.649-.717-.851-.905-.69-1.095-.242-1.472-.203-.679-.486-.567-.811-2.49-1.298h-1.358l-.943-.365-.075-1.337.83-1.541-.453-1.056-.793-.932-.868-.812-.68-.356-.527-.813.264-.608.868-.527.717-.607.038-1.582-.189-1.825-1.509-1.38-.528-.933-.944-.041-1.735-.77-1.019-1.097-.868-.812-.906-.648-.038-1.258.491-.771.642-1.988.415-.934.303-1.34.489-.974 1.133-.405 1.887-.162.793-.813.414-.73-.452-.561-.34-1.259-1.773-1.868-.68-1.054-.905-.934-.755-.326-.642-.771.113-.893-.415-.812-.151-1.383.642-.934.943-.65.265-1.056-.038-1.988-.49-1.139-1.283-2.112-.188-1.665-.604-1.179-.491-.568-.566-1.097.188-1.131.453-1.138 1.057-2.316-.075-.894-.303-.935.453-.936.643-.689v-3.09l.717-1.179.717-.773.415-1.097.188-.977 1.057-1.383.528-.976.831-1.099.528-1.868.717-.814.378-.651v-.886l.642-.528 1.207.121 1.698-.529.68-.364 1.472-.205 1.208-.365.642-.813.943-2.156.868-.732h5.038l.679-.569.491-.936.113-1.667.528-.814.528-1.344v-3.134l.34-1.179.604-.732-.415-.652v-3.418l-.49-.773-1.058-.733-1.962-.123-1.358-.813-.415-.855.037-1.872-.582-2.944.604-.935.075-2.322-.378-1.263-1.094-1.018-1.51-.367-1.358-.122-.905-.732-.944-3.302-.15-2.525-.453-1.344-.604-.979v-4.841l.527-.856.906-1.141 1.02-1.467 1.019-1.347 1.095-1.224.755-1.345.566-.773.452-2.12.943-.652 1.813-1.102.49-.856-.114-.938-.904-1.591-.604-.692-.113-.775.528-1.226 1.208-1.67.717-1.266-.113-11.775 2.076-2.164.452-1.021 1.019-.612.567-.734.037-.775-.453-.653v-2.957l.567-1.184-.114-1.388-.378-.694.228-.776.792-.694.868-.571 1.358-.204.943-.49 1.057-1.226 1.737-1.388 1.471-2.37.756-.939 1.471-.04 1.623-.491 2.151-.531 1.698-.883 1.736-1.062 1.66-.818 1.586-.612.384-.372.653.645.377 1.43.708.868.565 1.021-.047 2.094.52 1.735 1.792 3.37 1.18 1.072 1.792.306 1.794.868 1.84.562 1.556.971.897 1.071.612 1.379 1.038.61 1.272.51.804-.305.99-.868.896-.612h1.369l.519.665 1.321.714.707 1.529.756.623-.048 1.838.33 1.785 1.037.664.85.918.378 1.735.354.662 1.367.612 1.511 1.377 3.35.868.802.715.566 1.477.235 1.837.802.611 1.179.104.897-.816.802-.357 2.642-.102 1.181-.611.848-.613.143-9.437.565-1.092 1.463-1.379.99-1.479.613-1.481 1.18-4.031.756-1.275.471-1.123.66-1.124.236-1.685.376-1.38 1.228-.815.942-.971.048-3.013.284-1.532 1.037-.92.661-.766.754-1.849 1.368-1.788 1.227-1.891 1.274-2.351-.189-.868-2.028-1.175-.236-1.737.378-1.482.802-2.3 1.462-2.607.661-1.586.943-1.073 1.415-.459.614-.664 1.981-.358 3.065.512.943.97 1.038.614.301.349Zm17.67 240.449v.81l-.519.201-.567 1.368-.566.809-1.084-.202-.614-.557-1.509-.05-.944-1.014-.141-.708-.565-.505-.425-.759-3.114-.204-.661-.455-.565-.858-.85-1.063-.565-.405-.85-.304-.896-.607-.565-.505v-4.101l-.378-.656-.518-.507-.284-.658.33-.556.756.05.377.456 9.575-.152.425.81-.376.86.943 1.822v1.113l-1.228-.051v2.074l.896 1.266.943.91 1.981 1.317.99.504.568.507Zm-14.947-104.286-.453.487-.905-.243-.453-.406-.529-.732-.904-.569-.982-.082-.604-.568v-2.847l-1.434-.976.151-1.463 1.584-.082.906-.488h1.207l.453.488 2.114.082.604.568.377 1.464-.074 1.301-.604.488-.302.976-.379.325-.678 1.464.754.244.151.569Zm-26.185-273.902.161.937.677.679.058 1.543-.566.679-2.434.309-.85.493-.792.617-.792 1.235-2.095 1.358-1.472.493-.736 1.419-.736 1.913v2.221l.509 1.356 1.473.433 1.018.801.85 1.481.452.925 1.246.062.793.987v2.207l-.34 1.235-.68 1.232-2.037 1.727-.962 1.108-1.36.802-.623 1.418-.113 3.022-.226 1.477-.793 1.172-2.094 4.314.114 1.91.904.616.397 1.295-.113 7.144.284.814.565.923-.17.986-.792.553-1.018 1.109-.341.862 1.019 1.969-.113 1.539-.68.802-1.471.615-.566.985-.906 2.462-1.019 1.17-.284 2.645-.339 2.154-1.868 1.847.566 1.6-.057 1.414-.453.554-.905.676-1.076.185-.793 1.046-.113 1.292.51.676 1.302.553 1.415 1.6.678 1.045.059 1.476.396.984.848 1.168.058 4.021-.397 1.599-.679 2.027-.339 2.766-.568 2.396-.396 2.952-.397 2.395-.961 1.782-.848 1.228-1.246.125h-1.302l-1.246 1.044-1.33.859-.906.308-1.132-.247-1.359.122-.567.37v.613l.398.615.679 1.658.056.614-.905.615-.34.736-.339 1.106v4.186l-1.302.37-1.189 1.042-1.189.37-.964-.43-1.697-1.043-1.245.122-1.528.369-.793.307h-1.19l-.735.183-.792.676-.397 1.167-.396.797-.963.614-.736 1.105-.622 1.227-.227 1.043-.68.43-.055.675.622.552.679.86.056 1.226-.282.922-.906.307-.283.368-.736.245-.736.551-.962.492-1.076.122-.622.368-.42.54-.563-.936-.302-1.758-1.397-1.022-1.623-.737-1.434-.736-3.744-.204.025-.071-.907-.491h-1.32l-1.888-.41-1.51-.164-3.169-.162-2.793.245-1.207.736h-1.585l-4.756-.571-1.207-1.147-.831-1.882-.377-2.782-.378-2.128-1.132-1.228-.83-1.228-.152-1.884.755-1.063.83-.655.605-1.228-.227-4.504-.453-1.393-1.358-.574-2.567-.081-1.811-.573-1.813-.411-1.207-.82-1.056-.326-4.143.147-.225-1.568-.708-.972-1.322-.256-.66.256-.472.87-.753.46-1.558.052-.896.82-1.038.614-1.369.512-1.65-.717-1.32-.461-.614-1.28-.142-1.382-.425-.718-.613.411-.472.767-.849.819-.613-.256-.094-1.127.376-3.43.425-1.281.614-.757.33-1.281.614-1.229.282-.819v-1.793l-.236-1.126-.849-.666-.188-1.23.094-2.819.613-1.332.802-.359.755-2.255-.188-1.384-.52-1.486-.755-1.69-.377-1.334-.377-.513-.039-.663 2.826-.29 1.925-.432 1.359-1.168.396-1.969-.736-.983-1.132.245-1.189.677-1.586-.308-.96-.677-2.096-2.277-.962-.922-.566-1.6.34-.369-.114-1.109-.453-1.661 1.133-1.97.34-1.786.453-1.477.282-1.725.113-1.097v-4.925l-.566-.986.057-.801.566-1.291 1.018-.679.85-1.109.34-2.279-.622-1.542-.568-.615-.565-1.54.227-1.233 1.528.123 2.434-.185.792-.184.099-1.327.896.604 1.698.676 1.698.802 1.415.247h3.85l1.755.307 1.359.37 1.188-.554 1.359-.493.963-.74 1.074-1.479 1.246-.985.397-1.232.623-1.605.226-1.109 1.019-2.219 1.811-1.418 1.189-.123.849-.555.452-1.603.057-1.542.34-1.665.792-.616.453-1.111.227-.986.623-.863 1.188-.308.85.678.736.8 1.075.186 1.019.431.623.865.17 1.85.339.987.567-.186.735-.986.34-.618v-1.663l.283-.988.962-.062.284.801.961.679 1.303.247 1.245-.061 1.019-.494 1.019-1.11 1.642-1.048 1.245-.557 1.02.062 1.075.803 1.075.185 1.756-.246 1.245-.68.905-.74.51-1.11.623-2.468.396-.924.679-.321 2.945-.124 3.396.185 1.528-.37 1.02-1.049 1.187-.987 1.643-1.789.793-1.112.509-1.234.566-.679h1.981l3.226-.061 1.133-.371.679-1.173.284-.679.679-.925.848-.124.964-.37.537-.679.85-.124 1.641 1.235 1.471.432.624-.432.509-.556.566-.246 2.095-.68 1.472.186 1.584.555 1.756-.123.736-.926.452-1.05.17-1.11.849-1.051.963-.061.849.803 1.019 1.234 1.188.309 1.643.247 1.018-.433 1.415-.37 1.019.309 1.189.802h.907l1.528.803h1.016Z"/>
</svg>
