<svg xmlns="http://www.w3.org/2000/svg" width="77.408" height="37.909" viewBox="0 0 77.408 37.909">
  <g id="Group_12724" data-name="Group 12724" transform="translate(-476 279.075)">
    <g id="Group_12723" data-name="Group 12723">
      <path id="Path_9514" data-name="Path 9514" d="M94.714,39.8a11.534,11.534,0,0,1-2.262-1.581c.434-.267,1.015-.634,1.657-1.1a.376.376,0,0,0,.159-.308V33.921a.38.38,0,0,0-.2-.336.376.376,0,0,0-.389.021c-1.3.874-2.4,1.562-3.385,2.1A11.777,11.777,0,0,1,88.648,32.6h5.226a.381.381,0,0,0,.373-.306l.532-2.654a.382.382,0,0,0-.373-.455h-6.8a33.075,33.075,0,0,1-.755-5.266.38.38,0,0,0-.379-.354H83.566a.38.38,0,0,0-.379.409,31.568,31.568,0,0,0,.836,5.21H78.231c-.043-.6-.043-1.256-.043-1.945,1.094-.066,2.2-.19,3.4-.38a.381.381,0,0,0,.321-.375V24a.38.38,0,0,0-.429-.377,98.789,98.789,0,0,1-12.16.635.379.379,0,0,0-.38.38v2.482a.379.379,0,0,0,.38.38c1.928,0,3.649-.007,5.2-.086v1.772H68.668a.38.38,0,0,0-.38.38l.38,2.655a.38.38,0,0,0,.38.38h5.507v1.9c-1.777.039-3.554.043-5.369.043a.38.38,0,0,0-.38.38v2.819a.382.382,0,0,0,.114.272.376.376,0,0,0,.274.108c1.857-.041,3.666-.084,5.361-.165V38c0,1.233-.6,1.86-1.773,1.86H69.663a.381.381,0,0,0-.38.38l.38,2.655a.38.38,0,0,0,.38.38h4a4.3,4.3,0,0,0,3.126-1.918.419.419,0,0,0,.037-.057,9.78,9.78,0,0,0,.979-3.514c1.534-.079,3.028-.159,4.448-.274a.379.379,0,0,0,.349-.379V34.64a.38.38,0,0,0-.4-.38c-1.418.071-2.84.11-4.216.148l-.14,0V32.6h6.743a22.026,22.026,0,0,0,2.291,4.755,19.562,19.562,0,0,1-6.7,2.1.381.381,0,0,0-.351.379V42.7a.381.381,0,0,0,.442.375,28.677,28.677,0,0,0,8.68-3,17.815,17.815,0,0,0,5.023,3.792.38.38,0,0,0,.554-.339V40.134a.382.382,0,0,0-.2-.337" transform="translate(458.449 -285.131)" fill="#00aaa7"/>
      <path id="Path_9515" data-name="Path 9515" d="M65.3.15a.382.382,0,0,0-.3-.15H61.629a.38.38,0,0,0-.365.273c-1.542,5.279-3.7,9.3-6.6,12.282a.379.379,0,0,0-.108.265v4.308a.381.381,0,0,0,.617.3,25.551,25.551,0,0,0,3.534-3.421V37.53a.38.38,0,0,0,.38.38h3.259a.38.38,0,0,0,.381-.38V7.694A44.131,44.131,0,0,0,65.36.483.381.381,0,0,0,65.3.15" transform="translate(461.978 -279.075)" fill="#00aaa7"/>
      <path id="Path_9516" data-name="Path 9516" d="M94.858,13.209a.381.381,0,0,0-.294-.14H83.878V11.3h9.2a.38.38,0,0,0,.371-.3l.533-2.482a.381.381,0,0,0-.371-.46H83.878V6.239h9.937a.379.379,0,0,0,.372-.3l.533-2.568a.379.379,0,0,0-.372-.457h-3.6c.221-.88.392-1.667.528-2.405A.38.38,0,0,0,90.9.058H87.509a.38.38,0,0,0-.37.3c-.187.822-.39,1.7-.625,2.557H77.826c-.2-.824-.4-1.694-.582-2.514a.38.38,0,0,0-.37-.3H73.358a.383.383,0,0,0-.374.455c.146.731.329,1.5.562,2.356H69.517a.38.38,0,0,0-.38.38l.38,2.568a.38.38,0,0,0,.38.38h9.787V8.055H69.6a.38.38,0,0,0-.38.38l.38,2.482a.381.381,0,0,0,.38.38h9.7v1.772H68.609a.381.381,0,0,0-.38.38l.38,2.611a.381.381,0,0,0,.381.38H94.031a.379.379,0,0,0,.372-.3l.533-2.611a.38.38,0,0,0-.078-.317" transform="translate(458.464 -279.09)" fill="#00aaa7"/>
      <path id="Path_9517" data-name="Path 9517" d="M96.844,28.177H99.8a.381.381,0,0,0,.363-.5c-.391-1.211-.72-2.4-.982-3.532a.379.379,0,0,0-.37-.294H95.952a.381.381,0,0,0-.372.457,36.19,36.19,0,0,0,.9,3.6.381.381,0,0,0,.363.265" transform="translate(451.437 -285.206)" fill="#00aaa7"/>
    </g>
    <path id="Path_9518" data-name="Path 9518" d="M36.208,14.421a32.269,32.269,0,0,1-4.785-2.913C29,9.753,24.634,5.754,22.927,1.943a.337.337,0,0,0-.312-.181H13.8a.336.336,0,0,0-.312.181c-1.707,3.811-6.077,7.81-8.5,9.564A32.137,32.137,0,0,1,.208,14.421.359.359,0,0,0,0,14.747v3.71a.357.357,0,0,0,.146.288.353.353,0,0,0,.213.071A.323.323,0,0,0,.464,18.8a28.583,28.583,0,0,0,5.069-2.3H15.915V20.12H3.881a.38.38,0,0,0-.38.38l.3,3.13a.38.38,0,0,0,.38.38h11.73v9.121H11.4a.4.4,0,0,0-.01-.2c-.62-1.909-1.14-4.2-1.585-6.064a.367.367,0,0,0-.353-.288H6.145a.358.358,0,0,0-.282.141.393.393,0,0,0-.072.319c.417,2.032.923,4.428,1.461,6.094H2.221a.38.38,0,0,0-.38.38l.3,3.216a.38.38,0,0,0,.38.38H33.664a.38.38,0,0,0,.375-.318l.531-3.216a.379.379,0,0,0-.374-.442H29.351a56.569,56.569,0,0,0,1.277-6.107.392.392,0,0,0-.078-.311.359.359,0,0,0-.279-.136H26.794a.368.368,0,0,0-.356.3c-.327,1.647-.73,3.889-1.27,6.076a.4.4,0,0,0,0,.175H20.109V24.011H32.337a.38.38,0,0,0,.38-.38l.3-3.13a.38.38,0,0,0-.38-.38H20.109V16.5H30.883a28.607,28.607,0,0,0,5.069,2.3.327.327,0,0,0,.106.016.353.353,0,0,0,.212-.071.356.356,0,0,0,.147-.288v-3.71a.359.359,0,0,0-.21-.326M10.854,12.608a38.34,38.34,0,0,0,5.952-6.957h2.806a38.34,38.34,0,0,0,5.952,6.957Z" transform="translate(476 -279.528)" fill="#00aaa7"/>
  </g>
</svg>
