<svg xmlns="http://www.w3.org/2000/svg" width="1867" height="678" fill="currentColor" viewBox="0 0 1867 678">
  <path fill="#fff" d="M738.6 666.9c-4.5 0-8.9-2-11.8-5.7L572.6 468.8v183c0 8.4-6.8 15.1-15.1 15.1-8.4 0-15.1-6.8-15.1-15.1V425.6c0-6.4 4.1-12.2 10.1-14.3 6.1-2.2 12.8-.2 16.8 4.8l154.2 192.4v-183c0-8.4 6.8-15.1 15.1-15.1 8.4 0 15.1 6.8 15.1 15.1v226.1c0 6.4-4.1 12.2-10.1 14.3-1.6.7-3.3 1-5 1ZM1251 550.1h-181.1c-8.4 0-15.1-6.8-15.1-15.1 0-8.4 6.8-15.1 15.1-15.1H1251c8.4 0 15.1 6.8 15.1 15.1s-6.8 15.1-15.1 15.1Z"/>
  <path fill="#fff" d="M1069.8 666.3c-8.4 0-15.1-6.8-15.1-15.1v-225c0-8.4 6.8-15.1 15.1-15.1 8.4 0 15.1 6.8 15.1 15.1v225c.1 8.3-6.7 15.1-15.1 15.1Zm184.9 0c-8.4 0-15.1-6.8-15.1-15.1v-225c0-8.4 6.8-15.1 15.1-15.1 8.4 0 15.1 6.8 15.1 15.1v225c.1 8.3-6.7 15.1-15.1 15.1Zm382.4-57.2c-8.4 0-15.1-6.8-15.1-15.1V425.6c0-8.4 6.8-15.1 15.1-15.1 8.4 0 15.1 6.8 15.1 15.1V594c0 8.3-6.7 15.1-15.1 15.1Zm214.6 0c-8.4 0-15.1-6.8-15.1-15.1V425.6c0-8.4 6.8-15.1 15.1-15.1 8.4 0 15.1 6.8 15.1 15.1V594c0 8.3-6.8 15.1-15.1 15.1Zm-107.4 0c-8.4 0-15.1-6.8-15.1-15.1V426.8c0-8.4 6.8-15.1 15.1-15.1 8.4 0 15.1 6.8 15.1 15.1V594c.1 8.3-6.7 15.1-15.1 15.1Z"/>
  <path fill="#fff" d="M1695.6 666.9c-24.1 0-42.7-6.6-55.4-19.5-12.6-12.8-18.7-31.2-18.3-54.7.2-8.3 6.9-14.9 15.1-14.9h.3c8.4.1 15 7.1 14.9 15.4-.3 15.1 3 26.2 9.6 32.9 6.8 6.9 18.2 10.4 33.8 10.4 12 0 20.4-3.5 25.7-10.7 5.2-7 7.9-18.1 7.9-31.9 0-8.4 6.8-15.1 15.1-15.1 8.4 0 15.1 6.8 15.1 15.1 0 20.7-4.7 37.5-13.9 49.9-7.6 10.6-22.6 23.1-49.9 23.1Z"/>
  <path fill="#fff" d="M1802.9 666.9c-24.1 0-42.7-6.6-55.4-19.5-12.6-12.8-18.7-31.2-18.3-54.7.2-8.3 6.9-14.9 15.1-14.9h.3c8.4.1 15 7.1 14.9 15.4-.3 15.1 3 26.2 9.6 32.9 6.8 6.9 18.2 10.4 33.8 10.4 12 0 20.4-3.5 25.7-10.7 5.2-7 7.9-18.1 7.9-31.9 0-8.4 6.8-15.1 15.1-15.1 8.4 0 15.1 6.8 15.1 15.1 0 20.7-4.7 37.5-13.9 49.9-7.6 10.6-22.5 23.1-49.9 23.1Zm-1324.2-226H330.4c-8.4 0-15.1-6.8-15.1-15.1 0-8.4 6.8-15.1 15.1-15.1h148.3c8.4 0 15.1 6.8 15.1 15.1.1 8.3-6.7 15.1-15.1 15.1Zm0 109.7H330.4c-8.4 0-15.1-6.8-15.1-15.1 0-8.4 6.8-15.1 15.1-15.1h148.3c8.4 0 15.1 6.8 15.1 15.1.1 8.3-6.7 15.1-15.1 15.1Z"/>
  <path fill="#fff" d="M330.3 550.6c-44.5 0-71-24.3-71-65 0-25.1 6.7-44.3 19.8-57.2 12.5-12.2 30.3-17.8 52.5-17.8 8.4.2 15 7.1 14.9 15.4-.2 8.4-7.5 14.5-15.4 14.9-13.5-.2-24.2 2.8-30.7 9.1-7.1 7-10.7 19-10.7 35.6 0 16.2 4.6 34.7 40.7 34.7 8.4 0 15.1 6.8 15.1 15.1 0 8.4-6.8 15.2-15.2 15.2Zm148.4 116.1H330.4c-8.4 0-15.1-6.8-15.1-15.1 0-8.4 6.8-15.1 15.1-15.1h148.3c8.4 0 15.1 6.8 15.1 15.1.1 8.3-6.7 15.1-15.1 15.1Z"/>
  <path fill="#fff" d="M330.3 666.7c-44.5 0-71-25.4-71-67.9 0-26.9 7-47.3 20.7-60.7 12.5-12.2 29.8-17.8 51.7-17.7 8.4.2 15 7.1 14.8 15.5-.2 8.4-6.5 15.1-15.5 14.8-13.5-.1-23.3 2.7-29.8 9.1-7.7 7.5-11.6 20.7-11.6 39.1 0 17.5 4.6 37.6 40.7 37.6 8.4 0 15.1 6.8 15.1 15.1.1 8.3-6.7 15.1-15.1 15.1ZM995.9 441H870.7c-8.4 0-15.1-6.8-15.1-15.1 0-8.4 6.8-15.1 15.1-15.1h125.2c8.4 0 15.1 6.8 15.1 15.1s-6.7 15.1-15.1 15.1Zm-40.5 110h-84.7c-8.4 0-15.1-6.8-15.1-15.1 0-8.4 6.8-15.1 15.1-15.1h84.7c8.4 0 15.1 6.8 15.1 15.1.1 8.3-6.7 15.1-15.1 15.1Z"/>
  <path fill="#fff" d="M870.6 551c-44.5 0-71-24.3-71-65.1 0-25.1 6.7-44.4 19.9-57.4 12.5-12.2 30.5-18.1 52.5-17.8 8.4.2 15 7.1 14.8 15.4-.2 8.3-7.1 14.7-15.4 14.9-13.8-.4-24.2 2.8-30.7 9.1-7.1 7-10.8 19-10.8 35.7 0 16.2 4.6 34.8 40.7 34.8 8.4 0 15.1 6.8 15.1 15.1.1 8.5-6.7 15.3-15.1 15.3Zm81.8 115.6c-8.4 0-15.1-6.8-15.1-15.1 0-8.4 6.8-15.1 15.1-15.1 22.2 0 34.2-6 34.2-37.5 0-40.7-10.2-47.4-34.5-47.8-8.4-.1-15-7-14.9-15.4.1-8.4 7.7-15 15.4-14.9 57 .9 64.3 42.2 64.3 78.1 0 44.9-21.7 67.7-64.5 67.7Z"/>
  <path fill="#fff" d="m958.4 666.6-145.8-.1c-8.4 0-15.1-6.8-15.1-15.2 0-8.4 6.8-15.1 15.1-15.1l145.8.1c8.4 0 15.1 6.8 15.1 15.2 0 8.4-6.7 15.1-15.1 15.1Zm-762.2-153c-8.4 0-15.1-6.8-15.1-15.1v-74.4c0-8.4 6.8-15.1 15.1-15.1 8.4 0 15.1 6.8 15.1 15.1v74.4c0 8.4-6.8 15.1-15.1 15.1Zm-180.1-.2c-8.4 0-15.1-6.8-15.1-15.1v-73.8c0-8.4 6.8-15.1 15.1-15.1 8.4 0 15.1 6.8 15.1 15.1v73.8c0 8.3-6.8 15.1-15.1 15.1Z"/>
  <path fill="#fff" d="M114.3 560.3c-48.6 0-80.8-8.9-98.5-27.2C5.4 522.3.3 508.7.9 492.8c.3-8.4 8.1-15.1 15.6-14.6 8.4.3 14.9 7.3 14.6 15.6-.3 7.6 1.8 13.4 6.4 18.2 7.9 8.2 27.7 18 76.7 18 44.2 0 66.7-12 66.7-35.7 0-8.4 6.8-15.1 15.1-15.1 8.4 0 15.1 6.8 15.1 15.1.2 19.9-9.3 66-96.8 66Zm0 108.1c-46.8 0-78.5-9.1-96.7-27.9C6 628.5.4 613.2.9 594.9c.2-8.4 7.3-15.5 15.6-14.7 8.4.3 14.9 7.2 14.7 15.6-.3 9.9 2.4 17.6 8.1 23.6 8.3 8.5 28 18.7 74.9 18.7 44.2 0 66.7-14 66.7-41.7 0-8.4 6.8-15.1 15.1-15.1 8.4 0 15.1 6.8 15.1 15.1.2 21.6-9.3 72-96.8 72Z"/>
  <path fill="#fff" d="M196.2 611.5c-8.4 0-15.1-6.8-15.1-15.1v-97.8c0-8.4 6.8-15.1 15.1-15.1 8.4 0 15.1 6.8 15.1 15.1v97.8c0 8.3-6.8 15.1-15.1 15.1Zm1249.6 20c-50.9 0-92.4-41.4-92.4-92.4 0-50.9 41.4-92.4 92.4-92.4 50.9 0 92.4 41.4 92.4 92.4 0 50.9-41.4 92.4-92.4 92.4Zm0-169.6c-42.6 0-77.2 34.6-77.2 77.2s34.6 77.2 77.2 77.2 77.2-34.6 77.2-77.2c.1-42.6-34.6-77.2-77.2-77.2Z"/>
  <path fill="#fff" d="M1505.4 528.2c-2.9 0-5.5-2.1-6-5.1-4-26.2-25.4-32.5-26.3-32.8-3.2-.9-5.1-4.3-4.2-7.5.9-3.2 4.3-5 7.4-4.2 1.2.3 29.8 8.5 35 42.6.5 3.3-1.8 6.4-5.1 6.9-.2.1-.5.1-.8.1Z"/>
  <path fill="#fff" d="M1445.8 399.6c-76.8 0-139.1 62.3-139.1 139.1s62.3 139.1 139.1 139.1 139.1-62.3 139.1-139.1-62.3-139.1-139.1-139.1Zm-.9 239c-55 0-99.5-44.6-99.5-99.5 0-55 44.6-99.5 99.5-99.5 27.5 0 52.4 11.2 70.4 29.2 18 17.9 29.1 42.6 29.1 69.9v.4c0 55-44.6 99.5-99.5 99.5Zm-495-518.7c7-4.9 14.9-7.3 23.6-7.3h59.4l44.9-52.6H974c-23.4 0-43.9 7.5-61.4 22.6-17.5 15.1-28.3 33.9-32.2 56.3h54.1c3.3-7.8 8.4-14.2 15.4-19Zm58.5 101.3c-7 4.9-14.9 7.3-23.6 7.3H834.9L790 281.1h194.4c23.4 0 43.9-7.5 61.4-22.6 17.5-15.1 28.3-33.9 32.2-56.3h-54.1c-3.4 7.8-8.5 14.1-15.5 19Zm-29.309-76.753-25.173 25.173 25.173 25.173 25.169-25.173-25.169-25.173Z"/>
  <path fill="#fff" d="M877.8 198.1h56.8V144h-56.8c-7.8-3.2-14.1-8.4-19-15.4s-7.3-14.9-7.3-23.6V45.6L798.9.7v103.8c0 23.4 7.5 43.9 22.6 61.4 15.1 17.6 33.9 28.3 56.3 32.2Z"/>
</svg>
