<svg width="64" height="65" viewBox="0 0 64 65" fill="none" xmlns="http://www.w3.org/2000/svg">
<path d="M35.5333 27.9072C37.0889 26.7888 38.8444 26.2411 40.7778 26.2411H53.9778L63.9555 14.2354H40.8889C35.6889 14.2354 31.1333 15.9472 27.2444 19.3937C23.3555 22.8402 20.9555 27.1312 20.0889 32.2439H32.1111C32.8444 30.4636 33.9778 29.0028 35.5333 27.9072Z" fill="#005C32"/>
<path d="M48.5333 51.0281C46.9778 52.1465 45.2222 52.6943 43.2889 52.6943H37.7333H30.0889C27.0667 52.6943 24.1778 52.6943 23.1778 52.6943H9.97778L0 64.7H20.1111H23.0889H43.2C48.4 64.7 52.9556 62.9881 56.8445 59.5416C60.7333 56.0951 63.1333 51.8041 64 46.6914H51.9778C51.2222 48.4717 50.0889 49.9097 48.5333 51.0281Z" fill="#005C32"/>
<path d="M42.0203 33.5098L36.4264 39.2554L42.0203 45.0009L47.6143 39.2554L42.0203 33.5098Z" fill="#005C32"/>
<path d="M19.5111 45.7558H20.1111H20.7111H32.1333V33.4078H20.7111H20.1111H19.5111C17.7778 32.6774 16.3778 31.4905 15.2889 29.8928C14.2 28.2951 13.6667 26.4919 13.6667 24.5062V10.9484L1.97778 0.700195V24.3921C1.97778 29.733 3.64444 34.412 7 38.4063C10.3556 42.4234 14.5333 44.8657 19.5111 45.7558Z" fill="#005C32"/>
</svg>
